HIERARCHY
ROOT Hips
{
	OFFSET 0.00 86.18 0.00
	CHANNELS 6 Xposition Yposition Zposition Yrotation Xrotation Zrotation
	JOINT RightUpLeg
	{
		OFFSET -9.25 0.00 0.00
		CHANNELS 6 Xposition Yposition Zposition Yrotation Xrotation Zrotation
		JOINT RightLeg
		{
			OFFSET 0.00 -42.00 0.00
			CHANNELS 6 Xposition Yposition Zposition Yrotation Xrotation Zrotation
			JOINT RightFoot
			{
				OFFSET 0.00 -42.00 0.00
				CHANNELS 6 Xposition Yposition Zposition Yrotation Xrotation Zrotation
				End Site
				{
					OFFSET 0 -1.14 11.36
				}
			}
		}
	}
	JOINT LeftUpLeg
	{
		OFFSET 9.25 0.00 0.00
		CHANNELS 6 Xposition Yposition Zposition Yrotation Xrotation Zrotation
		JOINT LeftLeg
		{
			OFFSET 0.00 -42.00 0.00
			CHANNELS 6 Xposition Yposition Zposition Yrotation Xrotation Zrotation
			JOINT LeftFoot
			{
				OFFSET 0.00 -42.00 0.00
				CHANNELS 6 Xposition Yposition Zposition Yrotation Xrotation Zrotation
				End Site
				{
					OFFSET 0 -1.14 11.36
				}
			}
		}
	}
	JOINT Spine
	{
		OFFSET 0.00 10.46 0.00
		CHANNELS 6 Xposition Yposition Zposition Yrotation Xrotation Zrotation
		JOINT Spine1
		{
			OFFSET 0.00 9.75 0.00
			CHANNELS 6 Xposition Yposition Zposition Yrotation Xrotation Zrotation
			JOINT Spine2
			{
				OFFSET 0.00 10.15 0.00
				CHANNELS 6 Xposition Yposition Zposition Yrotation Xrotation Zrotation
				JOINT Spine3
				{
					OFFSET 0.00 9.75 0.00
					CHANNELS 6 Xposition Yposition Zposition Yrotation Xrotation Zrotation
			 		JOINT Neck
					{
						OFFSET 0.00 10.42 0.00
						CHANNELS 6 Xposition Yposition Zposition Yrotation Xrotation Zrotation
						JOINT Head
						{
							OFFSET 0.00 9.50 0.00
							CHANNELS 6 Xposition Yposition Zposition Yrotation Xrotation Zrotation
							End Site
							{
								OFFSET 0 16.00 0
							}
						}    
					} 
					JOINT RightShoulder
	 					{
						OFFSET -3.20 6.94 0.00
						CHANNELS 6 Xposition Yposition Zposition Yrotation Xrotation Zrotation
						JOINT RightArm
						{
							OFFSET -16.00 0.00 0.00
							CHANNELS 6 Xposition Yposition Zposition Yrotation Xrotation Zrotation
							JOINT RightForeArm
							{
								OFFSET -26.50 0.00 0.00
								CHANNELS 6 Xposition Yposition Zposition Yrotation Xrotation Zrotation
								JOINT RightHand
								{
									OFFSET -26.00 0.00 0.00
									CHANNELS 6 Xposition Yposition Zposition Yrotation Xrotation Zrotation
									End Site
									{
										OFFSET -17.50 0 0
									}
								}
							}
						}	
					}
					JOINT LeftShoulder
					{
						OFFSET 3.20 6.94 0.00
						CHANNELS 6 Xposition Yposition Zposition Yrotation Xrotation Zrotation
						JOINT LeftArm
						{
							OFFSET 16.00 0.00 0.00
							CHANNELS 6 Xposition Yposition Zposition Yrotation Xrotation Zrotation
							JOINT LeftForeArm
							{
								OFFSET 26.50 0.00 0.00
								CHANNELS 6 Xposition Yposition Zposition Yrotation Xrotation Zrotation
								JOINT LeftHand
								{
									OFFSET 26.00 0.00 0.00
									CHANNELS 6 Xposition Yposition Zposition Yrotation Xrotation Zrotation
									End Site
									{
										OFFSET 17.50 0 0
									}
								}
							}
						}
					}     			
				}
			}
		} 
	} 
}
MOTION
Frames: 15
Frame Time: 0.010
-121.74 93.88 76.95 -13.17 -8.01 -1.39 -9.31 0.01 0.06 -53.21 -20.38 3.18 0.05 -42.03 -0.14 30.80 43.74 -3.37 0.17 -41.91 0.01 6.84 13.09 20.58 9.20 -0.02 -0.14 5.61 7.43 2.62 -0.03 -42.02 -0.05 -7.03 -0.08 -1.74 -0.09 -42.02 -0.05 -1.01 4.49 0.74 -0.07 10.47 -0.06 -1.62 11.02 -2.73 -0.03 9.73 -0.12 -0.43 2.77 -0.65 0.05 10.15 -0.02 -0.81 4.55 -1.09 -0.06 9.75 -0.07 -1.98 -0.68 -0.00 -0.20 10.46 -0.19 -3.85 -0.68 0.13 -0.14 9.52 -0.02 -37.73 -13.67 4.57 -3.23 6.96 -0.12 2.70 4.24 2.75 -16.03 0.03 0.03 -11.58 1.13 79.95 -26.43 0.02 0.06 38.93 -10.82 1.02 -25.91 -0.02 -0.02 5.51 -3.88 -20.01 3.14 6.97 -0.14 3.41 4.51 1.68 16.03 -0.00 -0.16 14.33 12.44 -76.43 26.56 0.11 -0.03 -87.77 -9.19 12.39 25.97 -0.11 -0.09 4.71 10.32 36.65 
-121.35 93.76 77.17 -13.12 -8.11 -0.87 -9.34 0.05 0.08 -54.42 -20.37 4.49 0.05 -42.03 -0.12 31.20 43.30 -4.42 0.14 -41.91 -0.00 5.56 14.13 19.97 9.25 -0.02 -0.14 5.51 7.70 1.70 0.01 -42.01 -0.04 -6.89 -0.05 -1.73 -0.08 -42.01 -0.03 -1.00 4.41 1.34 -0.07 10.48 -0.07 -1.75 11.29 -3.24 -0.03 9.74 -0.11 -0.47 2.84 -0.78 0.06 10.15 -0.01 -0.89 4.65 -1.30 -0.05 9.75 -0.05 -1.97 -0.70 -0.00 -0.14 10.45 -0.19 -3.74 -0.71 0.13 -0.12 9.52 -0.05 -37.76 -14.20 4.69 -3.22 6.97 -0.10 2.75 4.32 2.87 -16.01 0.03 0.04 -10.87 1.00 80.02 -26.43 0.01 0.06 36.35 -10.77 0.99 -25.89 -0.01 -0.04 5.41 -3.90 -19.75 3.15 6.96 -0.11 3.39 4.82 1.82 16.00 -0.02 -0.14 13.72 11.37 -76.08 26.55 0.06 -0.04 -86.80 -8.45 11.66 25.95 -0.13 -0.10 5.81 11.10 34.52 
-121.02 93.67 77.40 -13.02 -8.11 -0.44 -9.37 0.07 0.10 -55.76 -20.19 5.96 0.03 -42.02 -0.10 31.76 42.59 -5.44 0.15 -41.90 -0.02 3.95 15.16 19.27 9.24 -0.02 -0.15 5.27 7.73 1.07 -0.00 -42.01 -0.05 -6.60 0.15 -1.94 -0.06 -42.00 -0.02 -1.13 4.28 1.74 -0.07 10.48 -0.07 -1.92 11.48 -3.67 -0.03 9.75 -0.08 -0.52 2.88 -0.88 0.07 10.15 -0.00 -0.98 4.72 -1.48 -0.04 9.75 -0.04 -1.96 -0.72 -0.01 -0.08 10.45 -0.17 -3.57 -0.73 0.11 -0.08 9.53 -0.07 -37.76 -14.68 4.67 -3.21 6.97 -0.06 2.77 4.39 2.87 -16.00 0.03 0.04 -10.02 0.80 80.23 -26.43 0.01 0.06 33.53 -10.60 0.89 -25.88 -0.01 -0.04 5.17 -3.95 -19.49 3.17 6.92 -0.07 3.36 5.14 2.00 15.98 -0.05 -0.12 13.31 10.31 -75.91 26.53 0.04 -0.05 -85.98 -8.01 10.57 25.93 -0.13 -0.09 6.81 11.71 32.28 
-120.75 93.60 77.67 -12.83 -8.02 -0.18 -9.37 0.08 0.12 -57.27 -19.83 7.48 0.04 -42.01 -0.08 32.42 41.73 -6.28 0.16 -41.89 -0.01 2.47 15.94 18.53 9.25 -0.01 -0.15 5.24 7.66 0.64 0.00 -42.00 -0.06 -6.42 0.41 -2.11 -0.04 -42.00 -0.01 -1.45 4.09 1.94 -0.08 10.48 -0.06 -2.11 11.58 -3.96 -0.02 9.75 -0.05 -0.57 2.91 -0.95 0.08 10.15 0.01 -1.08 4.76 -1.59 -0.03 9.75 -0.02 -1.96 -0.73 -0.03 -0.02 10.44 -0.13 -3.37 -0.74 0.07 -0.03 9.53 -0.08 -37.69 -15.05 4.48 -3.19 6.96 -0.03 2.77 4.52 2.77 -16.00 0.02 0.04 -9.08 0.53 80.59 -26.43 0.02 0.05 30.52 -10.33 0.75 -25.87 0.01 -0.05 4.84 -3.95 -19.14 3.18 6.94 -0.01 3.34 5.40 1.72 15.97 -0.04 -0.08 12.97 9.31 -75.46 26.52 0.03 -0.05 -85.34 -7.89 9.31 25.92 -0.13 -0.07 7.57 12.02 30.16 
-120.51 93.57 77.99 -12.64 -7.88 0.01 -9.34 0.09 0.15 -58.62 -19.37 8.94 0.07 -42.05 -0.01 32.89 40.85 -7.01 0.14 -41.89 0.05 1.20 16.29 17.72 9.26 -0.00 -0.15 5.34 7.59 0.35 -0.00 -41.99 -0.08 -6.07 0.62 -2.25 -0.05 -42.00 -0.01 -2.08 3.91 2.03 -0.07 10.48 -0.06 -2.28 11.58 -4.14 -0.01 9.75 -0.02 -0.62 2.91 -0.99 0.08 10.15 0.02 -1.16 4.76 -1.66 -0.01 9.75 -0.01 -1.95 -0.73 -0.05 0.05 10.43 -0.08 -3.13 -0.74 0.03 0.02 9.52 -0.08 -37.55 -15.26 4.05 -3.18 6.96 -0.01 2.86 4.63 2.56 -16.01 0.01 0.03 -8.26 0.35 81.04 -26.43 0.03 0.03 27.41 -9.87 0.61 -25.87 0.03 -0.04 4.41 -3.91 -18.86 3.19 6.94 -0.02 2.71 5.51 1.38 15.97 -0.05 -0.11 13.02 8.63 -75.19 26.50 0.03 -0.04 -84.82 -8.06 8.10 25.92 -0.11 -0.05 8.05 12.03 28.33 
-120.29 93.55 78.35 -12.40 -7.72 0.09 -9.32 0.08 0.15 -59.49 -18.84 10.24 0.08 -42.03 -0.02 33.02 39.65 -7.62 0.15 -41.90 0.02 0.12 16.57 17.07 9.28 0.01 -0.15 5.38 7.52 0.11 0.02 -41.99 -0.08 -5.52 0.88 -2.38 -0.05 -42.00 0.00 -2.92 3.66 2.05 -0.07 10.47 -0.05 -2.42 11.52 -4.21 -0.00 9.75 -0.00 -0.65 2.89 -1.00 0.08 10.15 0.02 -1.22 4.73 -1.68 -0.01 9.75 0.00 -1.94 -0.71 -0.08 0.10 10.41 -0.02 -2.94 -0.73 -0.02 0.07 9.52 -0.07 -37.37 -15.31 3.42 -3.17 6.96 0.02 2.81 4.66 2.32 -16.02 -0.00 0.04 -7.60 0.33 81.44 -26.44 0.04 0.03 24.27 -9.03 0.62 -25.87 0.04 -0.02 3.94 -3.73 -18.66 3.21 6.95 -0.03 2.02 5.55 0.88 15.98 -0.03 -0.13 12.84 8.13 -74.88 26.49 0.04 -0.03 -84.41 -8.43 7.03 25.92 -0.09 -0.03 8.24 11.74 26.87 
-120.06 93.55 78.76 -12.19 -7.57 0.16 -9.31 0.07 0.16 -59.89 -18.26 11.37 0.07 -42.01 -0.01 32.78 38.34 -8.15 0.16 -41.91 -0.01 -0.62 16.53 16.55 9.26 0.01 -0.14 5.21 7.53 -0.02 0.00 -41.99 -0.08 -4.90 1.06 -2.62 -0.04 -42.01 0.01 -3.62 3.42 2.09 -0.07 10.47 -0.04 -2.56 11.43 -4.22 -0.01 9.75 0.02 -0.68 2.87 -1.01 0.08 10.15 0.03 -1.27 4.69 -1.69 -0.00 9.75 0.01 -1.93 -0.69 -0.11 0.14 10.40 0.03 -2.72 -0.71 -0.08 0.12 9.51 -0.06 -37.14 -15.24 2.68 -3.16 6.96 0.02 2.87 4.50 2.04 -16.03 -0.01 0.04 -7.37 0.55 81.76 -26.45 0.05 0.02 21.20 -7.73 0.83 -25.88 0.06 -0.01 3.43 -3.28 -18.57 3.22 6.96 -0.01 1.62 5.52 0.47 15.98 -0.03 -0.13 12.17 7.78 -74.76 26.49 0.06 -0.02 -84.10 -8.85 6.09 25.93 -0.06 -0.01 8.26 11.29 25.87 
-119.79 93.55 79.20 -11.92 -7.46 0.16 -9.32 0.07 0.16 -59.74 -17.67 12.25 0.07 -42.00 0.01 32.14 36.97 -8.49 0.16 -41.92 -0.05 -0.95 16.27 16.16 9.23 0.01 -0.14 4.96 7.59 -0.12 -0.01 -41.99 -0.07 -4.56 1.25 -2.83 -0.04 -42.01 0.01 -4.02 3.17 2.27 -0.06 10.47 -0.03 -2.71 11.34 -4.18 -0.01 9.75 0.03 -0.72 2.85 -0.99 0.08 10.15 0.03 -1.33 4.65 -1.67 0.00 9.74 0.01 -1.92 -0.66 -0.15 0.18 10.40 0.09 -2.56 -0.68 -0.12 0.16 9.51 -0.05 -36.91 -15.09 1.92 -3.16 6.96 0.02 2.88 4.19 1.79 -16.03 -0.02 0.04 -7.48 0.97 81.94 -26.46 0.04 0.02 18.26 -6.08 1.20 -25.89 0.06 0.01 2.96 -2.35 -18.49 3.23 6.96 0.00 1.40 5.42 0.19 15.98 -0.03 -0.12 11.15 7.58 -74.82 26.49 0.00 -0.01 -83.81 -9.10 5.66 25.93 -0.12 0.00 8.06 10.82 24.88 
-119.48 93.56 79.69 -11.66 -7.38 0.14 -9.32 0.06 0.15 -58.98 -17.21 12.92 0.05 -41.98 0.03 31.20 35.67 -8.53 0.15 -41.93 -0.08 -1.04 15.83 15.93 9.22 0.01 -0.13 4.72 7.69 -0.34 0.01 -42.00 -0.05 -4.60 1.42 -2.95 -0.01 -42.01 0.02 -4.07 2.88 2.37 -0.05 10.47 -0.02 -2.84 11.27 -4.12 -0.02 9.75 0.04 -0.75 2.83 -0.97 0.07 10.15 0.03 -1.38 4.62 -1.64 0.01 9.74 0.01 -1.92 -0.63 -0.18 0.20 10.39 0.13 -2.45 -0.65 -0.16 0.20 9.50 -0.04 -36.70 -14.89 1.21 -3.16 6.96 0.02 2.86 3.79 1.58 -16.03 -0.02 0.05 -7.91 1.60 82.07 -26.47 0.03 0.04 15.60 -4.15 1.56 -25.90 0.07 0.02 2.52 -0.91 -18.33 3.24 6.96 0.01 1.20 5.19 -0.01 15.98 -0.03 -0.12 9.99 7.51 -75.06 26.50 0.02 -0.00 -83.58 -9.14 4.98 25.94 -0.09 0.01 7.91 10.46 24.59 
-119.12 93.57 80.21 -11.31 -7.33 0.04 -9.31 0.05 0.14 -57.77 -16.89 13.39 0.05 -41.97 0.04 30.11 34.55 -8.21 0.12 -41.94 -0.10 -0.98 15.21 15.96 9.21 0.01 -0.13 4.39 7.84 -0.57 0.03 -42.00 -0.07 -4.83 1.53 -2.97 0.01 -42.01 -0.00 -3.90 2.66 2.53 -0.04 10.47 -0.01 -3.01 11.20 -4.01 -0.02 9.75 0.04 -0.79 2.81 -0.95 0.06 10.15 0.03 -1.44 4.60 -1.59 0.01 9.75 0.02 -1.91 -0.60 -0.20 0.22 10.40 0.16 -2.40 -0.63 -0.19 0.23 9.50 -0.02 -36.52 -14.69 0.58 -3.15 6.95 0.02 2.81 3.38 1.42 -16.02 -0.02 0.06 -8.46 2.29 82.14 -26.48 0.01 0.05 13.15 -2.14 1.80 -25.91 0.06 0.02 2.16 0.93 -18.00 3.24 6.96 0.02 1.07 4.89 -0.20 15.98 -0.02 -0.11 8.66 7.54 -75.36 26.51 0.04 -0.00 -83.40 -8.82 4.48 25.94 -0.08 0.01 7.73 10.24 24.52 
-118.74 93.57 80.75 -10.94 -7.28 -0.08 -9.29 0.04 0.13 -56.17 -16.74 13.72 0.06 -41.97 0.05 28.94 33.61 -7.65 0.11 -41.95 -0.10 -0.88 14.45 16.31 9.21 0.01 -0.12 4.04 8.00 -0.83 0.02 -42.00 -0.05 -5.03 1.71 -2.88 0.03 -42.01 0.01 -3.78 2.33 2.62 -0.03 10.47 -0.01 -3.19 11.13 -3.89 -0.01 9.75 0.04 -0.84 2.80 -0.91 0.06 10.15 0.03 -1.51 4.57 -1.54 0.01 9.75 0.02 -1.91 -0.58 -0.23 0.23 10.40 0.19 -2.39 -0.60 -0.22 0.24 9.50 -0.02 -36.38 -14.52 0.04 -3.15 6.95 0.02 2.75 3.00 1.29 -16.02 -0.02 0.07 -9.10 3.04 82.22 -26.49 -0.01 0.06 10.95 -0.17 1.83 -25.92 0.05 0.02 1.89 2.97 -17.43 3.24 6.94 0.01 0.83 4.48 -0.19 15.99 -0.03 -0.11 7.44 7.72 -75.95 26.52 0.06 0.00 -83.24 -8.14 3.98 25.95 -0.07 0.01 7.48 10.20 24.66 
-118.37 93.57 81.27 -10.51 -7.23 -0.24 -9.29 0.03 0.12 -54.42 -16.67 14.01 0.07 -41.98 0.06 27.70 32.84 -7.01 0.11 -41.97 -0.09 -0.75 13.60 17.00 9.24 0.02 -0.11 3.61 8.16 -1.13 0.04 -42.01 -0.04 -5.17 1.89 -2.75 0.05 -42.01 0.02 -3.66 2.02 2.76 -0.02 10.46 0.00 -3.43 11.07 -3.78 0.01 9.75 0.04 -0.89 2.78 -0.88 0.06 10.15 0.03 -1.60 4.55 -1.48 0.01 9.75 0.03 -1.91 -0.56 -0.24 0.24 10.40 0.20 -2.40 -0.59 -0.24 0.25 9.50 -0.02 -36.27 -14.44 -0.38 -3.15 6.95 0.02 2.72 2.66 1.22 -16.02 -0.01 0.07 -9.75 3.82 82.35 -26.49 -0.03 0.07 8.97 1.64 1.61 -25.93 0.03 0.02 1.73 5.02 -16.64 3.25 6.95 0.03 0.80 4.08 -0.35 16.00 -0.01 -0.09 6.08 7.82 -76.40 26.53 0.08 0.01 -83.09 -7.22 3.51 25.95 -0.07 -0.00 7.17 10.29 24.89 
-118.04 93.56 81.77 -10.05 -7.12 -0.31 -9.27 0.02 0.11 -52.54 -16.82 14.28 0.08 -41.97 0.04 26.49 32.18 -6.24 0.12 -41.99 -0.09 -0.60 12.79 17.89 9.26 0.01 -0.08 3.00 8.27 -1.49 0.04 -42.01 -0.03 -5.15 2.01 -2.60 0.04 -42.00 0.02 -3.55 1.79 2.91 -0.01 10.46 0.01 -3.71 10.97 -3.70 0.02 9.75 0.05 -0.96 2.76 -0.86 0.06 10.15 0.03 -1.71 4.50 -1.44 0.02 9.75 0.03 -1.91 -0.55 -0.26 0.25 10.41 0.20 -2.43 -0.58 -0.26 0.26 9.50 -0.02 -36.19 -14.45 -0.71 -3.15 6.96 0.01 2.69 2.41 1.16 -16.02 -0.00 0.07 -10.43 4.57 82.54 -26.50 -0.04 0.08 7.21 3.34 1.19 -25.93 0.01 0.02 1.55 6.68 -15.70 3.25 6.95 0.02 0.65 3.71 -0.39 16.00 -0.01 -0.09 4.83 7.90 -77.02 26.53 0.08 0.01 -82.94 -6.18 3.03 25.96 -0.07 -0.01 6.82 10.43 25.18 
-117.74 93.55 82.25 -9.58 -7.01 -0.32 -9.26 0.01 0.09 -50.87 -17.03 14.57 0.07 -41.98 0.02 25.54 31.62 -5.41 0.11 -42.01 -0.07 -0.31 12.04 18.71 9.27 0.00 -0.06 2.36 8.34 -1.84 0.04 -42.01 -0.00 -5.25 2.20 -2.56 0.04 -42.00 0.04 -3.31 1.50 3.08 0.00 10.46 0.01 -3.98 10.86 -3.65 0.04 9.74 0.06 -1.03 2.73 -0.84 0.06 10.15 0.03 -1.81 4.46 -1.42 0.02 9.75 0.03 -1.92 -0.55 -0.27 0.26 10.41 0.20 -2.53 -0.58 -0.28 0.26 9.50 -0.02 -36.16 -14.55 -0.95 -3.15 6.96 0.01 2.60 2.21 1.10 -16.02 0.00 0.07 -11.10 5.33 82.74 -26.50 -0.05 0.08 5.63 4.93 0.67 -25.93 -0.01 0.02 1.32 7.80 -14.71 3.25 6.95 0.03 0.52 3.40 -0.53 16.01 0.00 -0.08 3.55 7.91 -77.54 26.53 0.08 0.01 -82.75 -5.15 2.51 25.95 -0.07 -0.01 6.39 10.66 25.40 
-117.49 93.53 82.71 -9.13 -6.90 -0.23 -9.25 0.01 0.08 -49.35 -17.24 14.84 0.05 -41.98 0.00 24.76 31.09 -4.57 0.07 -42.03 -0.06 0.26 11.41 19.17 9.28 -0.01 -0.05 1.86 8.41 -2.18 0.04 -42.01 -0.01 -5.26 2.33 -2.61 0.05 -41.99 0.04 -3.26 1.32 3.25 0.01 10.46 0.02 -4.23 10.75 -3.64 0.04 9.74 0.08 -1.09 2.70 -0.83 0.06 10.15 0.03 -1.91 4.41 -1.41 0.02 9.75 0.04 -1.93 -0.55 -0.29 0.26 10.41 0.20 -2.65 -0.58 -0.30 0.25 9.51 -0.02 -36.14 -14.74 -1.15 -3.15 6.96 0.02 2.47 2.07 1.04 -16.03 0.01 0.07 -11.83 6.06 82.91 -26.50 -0.07 0.08 4.21 6.37 0.11 -25.94 -0.03 0.04 0.99 8.30 -13.80 3.24 6.94 0.02 0.30 3.13 -0.57 16.02 -0.00 -0.08 2.28 7.88 -78.18 26.52 0.08 0.01 -82.57 -4.10 1.97 25.95 -0.08 -0.02 5.89 10.76 25.77 
